<svg width="41" height="29" viewBox="0 0 41 29" fill="none" xmlns="http://www.w3.org/2000/svg">
<path fill-rule="evenodd" clip-rule="evenodd" d="M9.27814 12.6735H18.1415V6.47719H21.4824V0H0V15.0176H9.27814V12.6735Z" fill="white"/>
<path fill-rule="evenodd" clip-rule="evenodd" d="M10.9957 18.6782H9.27805V16.2986H4.06299V28.476H21.4824V24.8745H18.1414V18.6782H10.9957Z" fill="#43C970" fill-opacity="0.42"/>
<path fill-rule="evenodd" clip-rule="evenodd" d="M28.4472 12.6735H35.5929V15.0833H40.1519V3.38367H23.415V6.47723H26.7296V12.6735H28.4472Z" fill="#43C970" fill-opacity="0.42"/>
<path fill-rule="evenodd" clip-rule="evenodd" d="M37.3106 16.3682H35.5929V18.6782H26.7296V24.8745H23.415V26.0742H37.3106V16.3682Z" fill="white"/>
<path fill-rule="evenodd" clip-rule="evenodd" d="M10.9956 18.6782H18.1413V19.8792H10.9956V18.6782Z" fill="white"/>
<path fill-rule="evenodd" clip-rule="evenodd" d="M35.5928 13.8745V15.0833H37.3105V13.8745H35.5928ZM26.7295 7.67816V12.6735H28.4471V7.67816H26.7295Z" fill="white"/>
</svg>
