<svg width="194" height="175" viewBox="0 0 194 175" fill="none" xmlns="http://www.w3.org/2000/svg">
<g clip-path="url(#clip0_80_505)">
<path d="M213.4 -17.5H-19.4V192.5H213.4V-17.5Z" fill="white"/>
<path d="M213.4 -17.5H-19.4V192.5H213.4V-17.5Z" fill="#31B55D"/>
<path d="M197 0H-1V175H197V0Z" fill="#96E475"/>
<path fill-rule="evenodd" clip-rule="evenodd" d="M17.4075 88.1143H26.9074V79.5083H30.4883V70.5122H7.46293V91.3701H17.4075V88.1143Z" fill="#008037"/>
<path fill-rule="evenodd" clip-rule="evenodd" d="M19.2484 96.4542H17.4075V93.1492H11.8178V110.062H30.4883V105.06H26.9074V96.4542H19.2484Z" fill="#43C970" fill-opacity="0.42"/>
<path fill-rule="evenodd" clip-rule="evenodd" d="M37.9533 88.1143H45.6122V91.4612H50.4986V75.2117H32.5597V79.5083H36.1123V88.1143H37.9533Z" fill="#43C970" fill-opacity="0.42"/>
<path fill-rule="evenodd" clip-rule="evenodd" d="M47.4532 93.2458H45.6122V96.4542H36.1123V105.06H32.5597V106.726H47.4532V93.2458Z" fill="#008037"/>
<path fill-rule="evenodd" clip-rule="evenodd" d="M37.9533 106.726V98.1222H47.4532V93.2458H45.6122V96.4542H36.1123V105.06H32.5597V106.726H37.9533Z" fill="#008037"/>
<path fill-rule="evenodd" clip-rule="evenodd" d="M28.7484 105.06H30.4883V106.726H28.7484V105.06Z" fill="#008037"/>
<path fill-rule="evenodd" clip-rule="evenodd" d="M19.2484 96.4542H26.9074V98.1221H19.2484V96.4542Z" fill="#008037"/>
<path fill-rule="evenodd" clip-rule="evenodd" d="M45.6122 89.7823V91.4612H47.4532V89.7823H45.6122ZM36.1123 81.1763V88.1144H37.9533V81.1763H36.1123Z" fill="#008037"/>
<path d="M55.7185 96.3684C55.2052 96.3393 54.5969 96.3247 53.8916 96.3247H53.633V86.6486C53.9664 86.6742 54.2008 86.6851 54.3362 86.6851H54.6676C55.092 86.6851 55.4436 86.6669 55.7185 86.6268V90.4914H59.5015V86.6486C59.942 86.6742 60.3745 86.6851 60.7948 86.6851C61.2151 86.6851 61.4778 86.6669 61.587 86.6268V96.3684C61.3283 96.3393 60.819 96.3247 60.0592 96.3247H59.5015V92.2268H55.7185V96.3684Z" fill="white"/>
<path d="M67.6881 95.1799C67.2031 94.757 66.8191 94.252 66.5403 93.6632C66.2594 93.0762 66.1199 92.4309 66.1199 91.7309C66.1199 91.0273 66.2493 90.3601 66.5079 89.733C66.7706 89.1023 67.1465 88.5481 67.6315 88.0705C68.1206 87.5893 68.7106 87.2083 69.4018 86.9257C70.0909 86.645 70.8649 86.5028 71.7217 86.5028C73.203 86.5028 74.4498 86.9239 75.4643 87.7643C76.5474 88.6648 77.089 89.877 77.089 91.4028C77.089 92.8812 76.5313 94.1117 75.4158 95.0924C74.7246 95.6958 73.9082 96.1114 72.9665 96.3393C72.4977 96.4505 71.95 96.507 71.3256 96.507C70.6991 96.507 70.0585 96.3903 69.4018 96.157C68.749 95.9236 68.1771 95.5992 67.6881 95.1799ZM68.3509 91.6288C68.3509 92.0773 68.4338 92.4893 68.6015 92.8684C68.7672 93.244 68.9976 93.5666 69.2886 93.8382C69.9191 94.407 70.7234 94.6913 71.7055 94.6913C72.6432 94.6913 73.397 94.4197 73.9689 93.8747C74.5448 93.3114 74.8338 92.5403 74.8338 91.5632C74.8338 90.6445 74.5589 89.8788 74.0093 89.2663C73.4111 88.6101 72.5967 88.282 71.5681 88.282C70.5658 88.282 69.7675 88.6156 69.1754 89.2809C68.6258 89.9044 68.3509 90.6864 68.3509 91.6288Z" fill="white"/>
<path d="M87.9024 87.2174L87.7488 89.3538L87.6922 89.3684C87.2981 88.8288 86.6252 88.4788 85.6714 88.3184C85.3682 88.271 85.0813 88.2455 84.8064 88.2455C84.5316 88.2455 84.2931 88.2674 84.0951 88.3111C83.9011 88.3512 83.7334 88.4114 83.5939 88.4934C83.3029 88.6684 83.1574 88.8981 83.1574 89.1788C83.1574 89.5434 83.2827 89.8187 83.5374 90.0028C83.8607 90.227 84.3942 90.3856 85.1379 90.4768C85.8815 90.5643 86.4797 90.6864 86.9324 90.8413C87.385 90.9927 87.7528 91.1877 88.0398 91.4247C88.5894 91.8677 88.8643 92.4947 88.8643 93.3059C88.8643 94.3705 88.4197 95.1908 87.5305 95.7632C86.7646 96.2591 85.8047 96.507 84.6529 96.507C83.7192 96.507 82.7977 96.3466 81.8884 96.0257C81.5852 95.92 81.3225 95.7979 81.0962 95.6611L81.1851 93.233L81.2174 93.2184C81.8803 94.2502 82.9715 94.7643 84.4912 94.7643C85.5683 94.7643 86.2796 94.5309 86.6252 94.0643C86.7424 93.9038 86.803 93.727 86.803 93.532C86.803 93.3333 86.7666 93.171 86.6979 93.0434C86.6272 92.9177 86.512 92.8083 86.3504 92.7153C86.0432 92.5312 85.5198 92.4072 84.7822 92.3434C84.0486 92.2815 83.4484 92.1648 82.9796 91.9934C82.5148 91.8184 82.147 91.6033 81.8722 91.3445C81.365 90.8833 81.1124 90.2361 81.1124 89.4049C81.1124 88.5445 81.4478 87.8481 82.1228 87.3122C82.8018 86.7726 83.7172 86.5028 84.8711 86.5028C86.023 86.5028 87.0334 86.7416 87.9024 87.2174Z" fill="white"/>
<path d="M97.1967 96.3684C96.9381 96.3393 96.2773 96.3247 95.2163 96.3247H94.9577V88.3038H93.3652C92.8903 88.3038 92.6095 88.3257 92.5246 88.3695C92.4437 88.4132 92.3791 88.4533 92.3306 88.4861L92.3063 88.4788V86.6268L92.3306 86.6049C92.5084 86.6596 92.9853 86.6851 93.7613 86.6851H98.7972C99.2661 86.6851 99.5429 86.6632 99.6298 86.6195C99.7147 86.5757 99.7834 86.5374 99.8319 86.5028L99.8562 86.5101V88.3622L99.8319 88.3841C99.6541 88.3312 99.1772 88.3038 98.4012 88.3038H97.1967V96.3684Z" fill="white"/>
<path d="M104.761 95.1799C104.276 94.757 103.892 94.252 103.614 93.6632C103.333 93.0762 103.193 92.4309 103.193 91.7309C103.193 91.0273 103.323 90.3601 103.581 89.733C103.844 89.1023 104.22 88.5481 104.705 88.0705C105.194 87.5893 105.784 87.2083 106.475 86.9257C107.164 86.645 107.938 86.5028 108.795 86.5028C110.276 86.5028 111.523 86.9239 112.538 87.7643C113.621 88.6648 114.162 89.877 114.162 91.4028C114.162 92.8812 113.605 94.1117 112.489 95.0924C111.798 95.6958 110.982 96.1114 110.04 96.3393C109.571 96.4505 109.023 96.507 108.399 96.507C107.772 96.507 107.132 96.3903 106.475 96.157C105.822 95.9236 105.25 95.5992 104.761 95.1799ZM105.424 91.6288C105.424 92.0773 105.507 92.4893 105.675 92.8684C105.841 93.244 106.071 93.5666 106.362 93.8382C106.992 94.407 107.797 94.6913 108.779 94.6913C109.716 94.6913 110.47 94.4197 111.042 93.8747C111.618 93.3114 111.907 92.5403 111.907 91.5632C111.907 90.6445 111.632 89.8788 111.083 89.2663C110.484 88.6101 109.67 88.282 108.641 88.282C107.639 88.282 106.841 88.6156 106.249 89.2809C105.699 89.9044 105.424 90.6864 105.424 91.6288Z" fill="white"/>
<path d="M121.128 96.507C120.259 96.507 119.443 96.4432 118.679 96.3174V86.6195C119.384 86.5429 120.202 86.5028 121.136 86.5028C122.074 86.5028 122.918 86.6177 123.674 86.8455C124.434 87.0752 125.069 87.4033 125.582 87.8299C126.611 88.6812 127.126 89.8716 127.126 91.4028C127.126 93.12 126.552 94.4216 125.404 95.3111C124.373 96.1096 122.949 96.507 121.128 96.507ZM120.764 94.7351C121.114 94.7934 121.461 94.8226 121.807 94.8226C122.157 94.8226 122.53 94.7624 122.931 94.6403C123.335 94.52 123.684 94.3268 123.981 94.0643C124.612 93.5101 124.927 92.708 124.927 91.658C124.927 89.9281 124.228 88.8635 122.834 88.4643C122.369 88.3385 121.835 88.2747 121.233 88.2747H121.015C120.934 88.2747 120.849 88.2783 120.764 88.282V94.7351Z" fill="white"/>
<path d="M132.039 86.6559C132.572 86.676 132.896 86.6851 133.009 86.6851H133.591C133.87 86.6851 134.096 86.6669 134.27 86.6268L134.262 96.3247H132.039V86.6559Z" fill="white"/>
<path d="M148.399 90.5132C148.296 90.6736 148.245 91.0674 148.245 91.6945V93.9403C148.245 94.6221 147.853 95.2127 147.073 95.7122C146.259 96.2427 145.266 96.507 144.098 96.507C142.466 96.507 141.166 96.0458 140.202 95.1216C139.265 94.2429 138.796 93.1218 138.796 91.7601C138.796 90.3072 139.273 89.0986 140.227 88.1361C141.287 87.0479 142.753 86.5028 144.624 86.5028C145.873 86.5028 146.863 86.7197 147.59 87.1518L147.461 89.2955L147.396 89.3101C147.213 89.0148 146.843 88.7705 146.289 88.5809C145.766 88.4023 145.216 88.3111 144.64 88.3111C144.062 88.3111 143.559 88.395 143.128 88.5591C142.696 88.7249 142.33 88.9601 142.029 89.2663C141.399 89.8898 141.083 90.7137 141.083 91.7382C141.083 92.6333 141.36 93.3497 141.916 93.8893C142.476 94.4252 143.195 94.6913 144.074 94.6913C145.044 94.6913 145.695 94.4653 146.03 94.0132C146.137 93.8674 146.192 93.7033 146.192 93.5174V92.3143H145.157C144.602 92.3143 144.301 92.358 144.252 92.4455L144.228 92.4382L144.155 90.5497C144.305 90.5898 144.911 90.608 145.974 90.608H146.928C147.514 90.608 147.997 90.5716 148.375 90.4986L148.399 90.5132Z" fill="white"/>
<path d="M153.101 86.6559C153.635 86.676 153.958 86.6851 154.071 86.6851H154.653C154.932 86.6851 155.159 86.6669 155.332 86.6268L155.324 96.3247H153.101V86.6559Z" fill="white"/>
<path d="M164.506 96.3684C164.248 96.3393 163.587 96.3247 162.526 96.3247H162.267V88.3038H160.675C160.2 88.3038 159.919 88.3257 159.834 88.3695C159.753 88.4132 159.689 88.4533 159.64 88.4861L159.616 88.4788V86.6268L159.64 86.6049C159.818 86.6596 160.295 86.6851 161.071 86.6851H166.107C166.576 86.6851 166.853 86.6632 166.94 86.6195C167.024 86.5757 167.093 86.5374 167.142 86.5028L167.166 86.5101V88.3622L167.142 88.3841C166.964 88.3312 166.487 88.3038 165.711 88.3038H164.506V96.3684Z" fill="white"/>
<path d="M171.974 96.383C171.515 96.3429 170.98 96.3247 170.366 96.3247H169.727L173.227 87.4872C173.377 87.0934 173.453 86.8656 173.453 86.8018C173.453 86.7343 173.449 86.6924 173.445 86.6778L173.453 86.6632C173.803 86.6778 174.175 86.6851 174.569 86.6851C174.886 86.6851 175.272 86.6815 175.725 86.6705L175.733 86.6851C175.721 86.7052 175.717 86.7325 175.717 86.7653C175.717 86.8583 175.798 87.1007 175.959 87.4945L179.524 96.3466C179.415 96.3411 179.29 96.3393 179.144 96.3393C179.144 96.3393 179.007 96.3338 178.732 96.3247C178.596 96.3247 178.475 96.3247 178.368 96.3247H177.123L176.363 94.2393H172.734L171.974 96.383ZM175.741 92.4966L174.529 89.1278L173.34 92.4966H175.741Z" fill="white"/>
<path d="M184.688 96.3247C183.899 96.3247 183.378 96.3393 183.119 96.3684V86.6414C183.249 86.6705 183.515 86.6851 183.92 86.6851C184.324 86.6851 184.793 86.676 185.326 86.6559V94.582H186.991C187.476 94.582 187.86 94.5674 188.147 94.5382C188.109 95.6721 188.091 96.2591 188.091 96.3028V96.3757C187.567 96.3411 186.686 96.3247 185.447 96.3247H184.688Z" fill="white"/>
<path d="M151.737 103.154C152.184 103.154 152.547 103.147 152.828 103.132L152.78 103.286C152.57 103.296 152.412 103.318 152.311 103.351C152.208 103.38 152.125 103.442 152.06 103.533C152 103.621 151.941 103.765 151.883 103.964L150.735 107.865C150.686 108.04 150.662 108.164 150.662 108.237C150.662 108.353 150.704 108.432 150.791 108.47C150.876 108.505 151.03 108.526 151.252 108.536L151.212 108.696C150.947 108.681 150.589 108.674 150.137 108.674C149.623 108.674 149.247 108.681 149.005 108.696L149.037 108.536C149.252 108.526 149.409 108.506 149.506 108.477C149.607 108.444 149.688 108.382 149.749 108.295C149.813 108.207 149.874 108.065 149.935 107.865L151.196 103.628L147.582 108.732H147.388L146.798 103.563L145.561 107.784C145.513 107.965 145.489 108.096 145.489 108.178C145.489 108.309 145.537 108.401 145.634 108.448C145.731 108.497 145.901 108.526 146.143 108.536L146.103 108.696C145.903 108.681 145.61 108.674 145.222 108.674C144.876 108.674 144.604 108.681 144.397 108.696L144.446 108.536C144.646 108.526 144.798 108.499 144.907 108.455C145.02 108.412 145.109 108.342 145.173 108.244C145.238 108.142 145.299 107.989 145.359 107.784L146.491 103.964C146.54 103.785 146.564 103.657 146.564 103.584C146.564 103.473 146.519 103.399 146.434 103.358C146.348 103.32 146.194 103.296 145.974 103.286L146.022 103.132C146.204 103.147 146.463 103.154 146.798 103.154C147.105 103.154 147.36 103.147 147.566 103.132L148.043 107.792L151.317 103.154H151.737Z" fill="#96E475" fill-opacity="0.26"/>
<path d="M156.315 105.065C156.315 105.488 156.051 105.859 155.523 106.18C154.994 106.501 154.392 106.762 153.713 106.961C153.648 107.223 153.616 107.476 153.616 107.719C153.616 108.226 153.818 108.477 154.222 108.477C154.717 108.477 155.164 108.215 155.564 107.69L155.701 107.755C155.511 108.043 155.259 108.291 154.941 108.499C154.628 108.703 154.297 108.805 153.947 108.805C153.585 108.805 153.302 108.711 153.098 108.521C152.898 108.331 152.799 108.058 152.799 107.697C152.799 107.3 152.929 106.849 153.187 106.348C153.446 105.849 153.795 105.422 154.238 105.072C154.679 104.722 155.16 104.547 155.677 104.547C155.859 104.547 156.01 104.591 156.13 104.678C156.253 104.766 156.315 104.895 156.315 105.065ZM155.483 104.693C155.293 104.693 155.083 104.793 154.852 104.992C154.626 105.187 154.412 105.448 154.214 105.772C154.014 106.098 153.862 106.443 153.761 106.807C154.311 106.638 154.703 106.47 154.941 106.304C155.155 106.155 155.323 105.973 155.442 105.757C155.56 105.539 155.62 105.304 155.62 105.05C155.62 104.91 155.608 104.815 155.588 104.766C155.566 104.718 155.531 104.693 155.483 104.693Z" fill="#96E475" fill-opacity="0.26"/>
<path d="M160.982 107.42H161.143L160.949 107.996C160.846 108.284 160.701 108.49 160.513 108.616C160.329 108.742 160.135 108.805 159.931 108.805C159.753 108.805 159.618 108.763 159.527 108.681C159.434 108.599 159.389 108.477 159.389 108.317C159.389 108.171 159.426 107.967 159.502 107.704L159.624 107.303C159.349 107.834 159.068 108.218 158.783 108.455C158.496 108.689 158.195 108.805 157.878 108.805C157.591 108.805 157.368 108.72 157.207 108.55C157.049 108.375 156.972 108.116 156.972 107.77C156.972 107.332 157.098 106.862 157.352 106.355C157.605 105.845 157.946 105.418 158.379 105.072C158.809 104.722 159.278 104.547 159.785 104.547C159.902 104.547 160.012 104.582 160.109 104.649C160.206 104.718 160.274 104.809 160.319 104.926L160.755 103.453C160.775 103.386 160.788 103.315 160.788 103.242C160.788 103.136 160.741 103.058 160.65 103.008C160.563 102.961 160.412 102.936 160.198 102.936L160.246 102.768C160.553 102.764 160.83 102.737 161.079 102.688C161.325 102.635 161.564 102.555 161.79 102.447L160.084 108.025C160.046 108.153 160.028 108.242 160.028 108.295C160.028 108.441 160.096 108.514 160.238 108.514C160.355 108.514 160.464 108.455 160.561 108.339C160.658 108.218 160.763 108.009 160.877 107.712L160.982 107.42ZM158.128 108.557C158.306 108.557 158.508 108.448 158.734 108.229C158.961 108.007 159.183 107.71 159.405 107.34C159.626 106.971 159.81 106.578 159.955 106.158L160.254 105.13C160.222 104.995 160.161 104.895 160.076 104.831C159.995 104.764 159.9 104.729 159.793 104.729C159.438 104.729 159.102 104.901 158.791 105.24C158.478 105.575 158.225 105.991 158.031 106.487C157.841 106.982 157.748 107.445 157.748 107.872C157.748 108.33 157.874 108.557 158.128 108.557Z" fill="#96E475" fill-opacity="0.26"/>
<path d="M163.666 103.329C163.666 103.169 163.73 103.028 163.86 102.906C163.989 102.786 164.136 102.724 164.304 102.724C164.438 102.724 164.547 102.764 164.628 102.841C164.708 102.919 164.749 103.016 164.749 103.132C164.749 103.289 164.68 103.428 164.547 103.548C164.417 103.67 164.268 103.73 164.102 103.73C163.973 103.73 163.868 103.692 163.787 103.614C163.706 103.537 163.666 103.442 163.666 103.329ZM163.399 105.327C163.447 105.201 163.472 105.105 163.472 105.036C163.472 104.904 163.407 104.839 163.278 104.839C163.142 104.839 163.023 104.902 162.922 105.028C162.819 105.15 162.708 105.355 162.591 105.641L162.469 105.932H162.3L162.534 105.356C162.647 105.056 162.801 104.846 162.995 104.729C163.189 104.609 163.393 104.547 163.609 104.547C163.991 104.547 164.183 104.713 164.183 105.043C164.183 105.214 164.136 105.415 164.046 105.648L163.116 108.025C163.067 108.153 163.043 108.249 163.043 108.317C163.043 108.448 163.112 108.514 163.253 108.514C163.377 108.514 163.49 108.455 163.593 108.339C163.694 108.218 163.807 108.009 163.932 107.712L164.054 107.42H164.223L163.997 107.996C163.878 108.284 163.724 108.49 163.536 108.616C163.346 108.742 163.142 108.805 162.922 108.805C162.518 108.805 162.316 108.645 162.316 108.324C162.316 108.175 162.366 107.967 162.469 107.704L163.399 105.327Z" fill="#96E475" fill-opacity="0.26"/>
<path d="M167.904 104.7C167.613 104.7 167.324 104.844 167.04 105.13C166.753 105.413 166.518 105.787 166.336 106.253C166.152 106.72 166.061 107.208 166.061 107.719C166.061 107.978 166.114 108.169 166.223 108.295C166.33 108.417 166.478 108.477 166.668 108.477C167.147 108.477 167.583 108.215 167.977 107.69L168.147 107.755C167.963 108.043 167.712 108.291 167.395 108.499C167.076 108.703 166.744 108.805 166.401 108.805C166.045 108.805 165.762 108.707 165.552 108.514C165.346 108.315 165.245 108.029 165.245 107.653C165.245 107.227 165.354 106.769 165.576 106.282C165.797 105.798 166.106 105.386 166.506 105.05C166.91 104.715 167.367 104.547 167.88 104.547C168.149 104.547 168.373 104.609 168.551 104.729C168.729 104.846 168.818 105.006 168.818 105.211C168.818 105.376 168.757 105.524 168.64 105.655C168.527 105.783 168.381 105.845 168.204 105.845C168.084 105.845 167.995 105.816 167.937 105.757C167.876 105.699 167.848 105.626 167.848 105.539C167.848 105.389 167.908 105.26 168.034 105.152C168.163 105.046 168.317 104.977 168.495 104.948C168.375 104.784 168.179 104.7 167.904 104.7Z" fill="#96E475" fill-opacity="0.26"/>
<path d="M173.251 107.413H173.421L173.203 107.989C173.084 108.277 172.936 108.484 172.758 108.616C172.581 108.742 172.395 108.805 172.201 108.805C172.092 108.805 171.995 108.785 171.91 108.747C171.829 108.712 171.766 108.665 171.724 108.601C171.669 108.525 171.643 108.432 171.643 108.324C171.643 108.218 171.661 108.096 171.699 107.959C171.742 107.825 171.768 107.737 171.78 107.697L171.942 107.128C171.661 107.717 171.376 108.145 171.085 108.412C170.798 108.674 170.499 108.805 170.188 108.805C169.917 108.805 169.713 108.72 169.574 108.55C169.438 108.375 169.371 108.145 169.371 107.857C169.371 107.431 169.495 106.957 169.743 106.436C169.99 105.911 170.313 105.466 170.713 105.101C171.117 104.733 171.526 104.547 171.942 104.547C172.098 104.547 172.225 104.602 172.322 104.707C172.419 104.809 172.478 104.955 172.5 105.145L172.637 104.656C172.954 104.647 173.221 104.611 173.437 104.547L172.346 108.018C172.34 108.043 172.33 108.083 172.314 108.142C172.298 108.2 172.29 108.257 172.29 108.309C172.29 108.441 172.354 108.506 172.484 108.506C172.736 108.506 172.96 108.24 173.154 107.704L173.251 107.413ZM170.438 108.557C170.6 108.557 170.794 108.446 171.02 108.222C171.251 107.994 171.475 107.693 171.691 107.318C171.906 106.944 172.083 106.543 172.225 106.115L172.387 105.561C172.391 105.517 172.395 105.458 172.395 105.386C172.395 105.172 172.35 105.005 172.265 104.882C172.184 104.757 172.065 104.693 171.91 104.693C171.661 104.693 171.396 104.868 171.117 105.218C170.843 105.568 170.61 105.998 170.422 106.508C170.232 107.019 170.139 107.5 170.139 107.952C170.139 108.167 170.164 108.322 170.212 108.419C170.265 108.512 170.341 108.557 170.438 108.557Z" fill="#96E475" fill-opacity="0.26"/>
<path d="M175.172 108.025C175.133 108.138 175.115 108.229 175.115 108.302C175.115 108.444 175.182 108.514 175.317 108.514C175.435 108.514 175.546 108.455 175.649 108.339C175.75 108.218 175.859 108.009 175.972 107.712L176.085 107.42H176.255L176.037 107.996C175.831 108.536 175.481 108.805 174.986 108.805C174.586 108.805 174.388 108.636 174.388 108.295C174.388 108.164 174.428 107.967 174.509 107.704L175.932 103.453C175.958 103.362 175.972 103.289 175.972 103.234C175.972 103.129 175.926 103.052 175.835 103.008C175.748 102.961 175.596 102.936 175.382 102.936L175.439 102.768C175.75 102.764 176.029 102.737 176.271 102.688C176.518 102.635 176.758 102.555 176.991 102.447L175.172 108.025Z" fill="#96E475" fill-opacity="0.26"/>
</g>
<defs>
<clipPath id="clip0_80_505">
<rect width="194" height="175" fill="white"/>
</clipPath>
</defs>
</svg>
